<svg width="401" height="146" viewBox="0 0 401 146" fill="none" xmlns="http://www.w3.org/2000/svg">
<g clip-path="url(#clip0_0_3)">
<rect width="401" height="146" fill="#D1B0B0"/>
<path d="M62.424 54.568C61.0587 54.1413 59.736 53.8427 58.456 53.672C57.176 53.5013 55.9813 53.416 54.872 53.416C49.8373 53.416 45.9973 55.1227 43.352 58.536C40.792 61.864 39.512 66.8133 39.512 73.384C39.512 78.9307 40.92 83.3253 43.736 86.568C46.552 89.8107 50.0507 91.432 54.232 91.432C57.1333 91.432 60.12 90.8773 63.192 89.768C66.264 88.5733 69.2933 86.9093 72.28 84.776L78.808 94.376C76.1627 96.424 73.56 98.216 71 99.752C68.44 101.203 65.7947 102.312 63.064 103.08C60.4187 103.933 57.432 104.36 54.104 104.36C47.704 104.36 42.1573 103.208 37.464 100.904C32.856 98.5147 29.272 95.016 26.712 90.408C24.2373 85.8 23 80.1253 23 73.384C23 66.3013 24.1947 60.3707 26.584 55.592C28.9733 50.728 32.5147 47.1013 37.208 44.712C41.9013 42.2373 47.704 41 54.616 41C57.944 41 61.272 41.3413 64.6 42.024C68.0133 42.6213 71.2987 43.5173 74.456 44.712L78.04 62.248L64.344 65.192L62.424 54.568Z" fill="#742626"/>
<path d="M124.671 101.8V88.744H129.791V56.616H92.415V43.56H156.543V56.616H145.919V88.744H156.543V101.8H124.671ZM84.991 102.952V89.896C89.5137 90.152 92.927 89.5547 95.231 88.104C97.535 86.6533 99.1563 84.2213 100.095 80.808C101.034 77.3093 101.674 72.7867 102.015 67.24L102.911 53.8H116.479L115.327 70.696C114.815 78.12 113.535 84.392 111.487 89.512C109.439 94.5467 106.282 98.216 102.015 100.52C97.7483 102.824 92.0737 103.635 84.991 102.952Z" fill="#742626"/>
<path d="M196.354 41.128C203.01 41.128 208.642 42.408 213.25 44.968C217.858 47.4427 221.357 51.0693 223.746 55.848C226.135 60.5413 227.33 66.216 227.33 72.872C227.33 82.7707 224.642 90.4933 219.266 96.04C213.89 101.587 206.253 104.36 196.354 104.36C189.869 104.36 184.322 103.123 179.714 100.648C175.191 98.1733 171.735 94.5893 169.346 89.896C167.042 85.1173 165.89 79.4427 165.89 72.872C165.89 66.216 167.042 60.5413 169.346 55.848C171.735 51.0693 175.191 47.4427 179.714 44.968C184.322 42.408 189.869 41.128 196.354 41.128ZM196.482 54.312C191.618 54.312 187.949 55.8907 185.474 59.048C182.999 62.2053 181.762 66.8133 181.762 72.872C181.762 78.9307 182.999 83.5387 185.474 86.696C187.949 89.8533 191.618 91.432 196.482 91.432C201.431 91.432 205.143 89.8533 207.618 86.696C210.178 83.5387 211.458 78.9307 211.458 72.872C211.458 66.8133 210.178 62.2053 207.618 59.048C205.143 55.8907 201.431 54.312 196.482 54.312Z" fill="#742626"/>
<path d="M277.231 43.816C284.826 43.816 290.714 45.1813 294.895 47.912C299.162 50.5573 301.295 54.2693 301.295 59.048C301.295 61.864 300.527 64.3387 298.991 66.472C297.54 68.52 295.492 70.056 292.847 71.08C296.346 71.5067 299.076 72.872 301.039 75.176C303.002 77.48 303.983 80.424 303.983 84.008C303.983 89.64 302.319 94.0347 298.991 97.192C295.663 100.349 290.97 101.928 284.911 101.928H236.527V89H247.919V56.616H236.527V43.816H277.231ZM279.023 89.896C284.74 89.896 287.599 87.592 287.599 82.984C287.599 78.8027 284.911 76.712 279.535 76.712H264.431V89.896H279.023ZM278.255 67.112C282.607 67.112 284.783 65.2773 284.783 61.608C284.783 57.5973 281.796 55.592 275.823 55.592H264.431V67.112H278.255Z" fill="#742626"/>
<path d="M357.642 99.624C351.498 102.781 345.354 104.36 339.21 104.36C330.933 104.36 324.661 102.824 320.394 99.752C316.127 96.5947 313.994 92.0293 313.994 86.056C313.994 73.8533 322.101 67.752 338.314 67.752H351.754C351.754 62.8027 350.687 59.176 348.554 56.872C346.506 54.4827 343.946 53.288 340.874 53.288C338.997 53.288 337.247 53.416 335.626 53.672C334.09 53.928 332.554 54.312 331.018 54.824L329.866 60.84L316.426 59.176L318.858 44.84C322.357 43.6453 325.941 42.7493 329.61 42.152C333.365 41.4693 337.333 41.128 341.514 41.128C350.047 41.128 356.575 43.3893 361.098 47.912C365.706 52.3493 368.01 58.92 368.01 67.624V88.488L378.378 91.816L373.898 105.128L357.642 99.624ZM338.698 77.864C336.053 77.864 334.005 78.5893 332.554 80.04C331.189 81.4053 330.506 83.3253 330.506 85.8C330.506 90.3227 333.578 92.584 339.722 92.584C343.989 92.584 347.999 91.4747 351.754 89.256V77.864H338.698Z" fill="#742626"/>
<path d="M24 110H379V123H24V110Z" fill="#742626"/>
<path d="M40 23H379V36H40V23Z" fill="#742626"/>
<path d="M40 36L23.0294 19.0294L32.2218 9.83705L40.7071 18.3223L49.1924 26.8076L40 36Z" fill="#742626"/>
</g>
<defs>
<clipPath id="clip0_0_3">
<rect width="401" height="146" fill="white"/>
</clipPath>
</defs>
</svg>
